<svg width="191" height="191" viewBox="0 0 191 191" fill="none" xmlns="http://www.w3.org/2000/svg">
<path d="M169.93 32.5496C163.217 22.4783 148.972 21.0697 140.417 29.6249L107.219 62.8231C104.974 65.0667 103.504 67.9674 103.021 71.1037L99.5388 93.7492C99.4155 94.5519 99.4905 95.3726 99.7575 96.1396C100.024 96.9066 100.475 97.5966 101.07 98.1493C101.665 98.702 102.387 99.1005 103.171 99.3101C103.956 99.5198 104.78 99.5341 105.571 99.3518L128.531 94.0556C131.372 93.4003 133.959 91.927 135.972 89.8178L167.845 56.4246C170.852 53.2732 172.697 49.1922 173.076 44.8529C173.455 40.5136 172.345 36.1745 169.93 32.5496ZM89.7063 92.2371C89.3358 94.646 89.5609 97.1091 90.3621 99.4109C91.1633 101.713 92.5162 103.783 94.3024 105.442C96.0886 107.1 98.2538 108.295 100.609 108.923C102.964 109.552 105.437 109.593 107.812 109.045L130.771 103.749C135.506 102.656 139.816 100.201 143.17 96.6858L175.083 63.2528V134.297C175.083 140.893 172.463 147.218 167.799 151.882C163.135 156.546 156.809 159.167 150.214 159.167H40.7864C34.1905 159.167 27.8648 156.546 23.2008 151.882C18.5368 147.218 15.9166 140.893 15.9166 134.297V96.081C16.2084 95.9536 16.4896 95.7971 16.7602 95.6114C19.0602 94.0198 21.8814 91.8551 24.8976 89.5392C26.2664 88.4887 27.679 87.4064 29.0956 86.336C33.7711 82.8025 38.7809 79.1775 43.6872 76.2806C48.6731 73.34 53.1457 71.3942 56.7866 70.8371C60.2008 70.3198 62.3137 71.056 63.8696 72.8745C64.7768 73.9289 65.119 74.8481 65.2265 75.6798C65.3458 76.5751 65.2344 77.6893 64.7529 79.1337C63.7462 82.1698 61.5815 85.4685 58.8916 89.5591L58.7484 89.77C56.2415 93.594 53.1815 98.2576 51.9122 103.037C51.2476 105.543 51.0049 108.293 51.6694 111.126C52.3379 113.991 53.858 116.598 56.1699 118.913C59.4965 122.24 63.2926 123.816 67.1046 124.086C70.7933 124.353 74.1796 123.382 76.8775 122.18C79.2102 121.12 81.4099 119.788 83.4311 118.213C84.3223 117.519 85.1801 116.784 86.0017 116.009L86.0534 115.961L86.0733 115.941L86.0773 115.937L86.0813 115.933C86.9887 114.996 87.4919 113.74 87.4825 112.436C87.473 111.132 86.9517 109.884 86.0307 108.96C85.1098 108.037 83.863 107.512 82.5588 107.499C81.2546 107.485 79.9974 107.985 79.058 108.89L78.9944 108.95L78.676 109.244C78.2477 109.626 77.8057 109.992 77.351 110.342C75.9589 111.43 74.4445 112.352 72.8386 113.088C71.0599 113.88 69.3489 114.274 67.8129 114.162C66.4043 114.067 64.8524 113.526 63.205 111.878C62.0272 110.704 61.5497 109.698 61.3547 108.858C61.1478 107.991 61.1677 106.94 61.5258 105.595C62.3058 102.659 64.351 99.3678 67.0648 95.2334L67.5423 94.5132C69.9298 90.8921 72.763 86.5867 74.1955 82.2653C74.9913 79.8539 75.4609 77.1799 75.0908 74.3786C74.7128 71.5136 73.4991 68.8237 71.422 66.4004C67.0091 61.2513 61.0364 60.1252 55.2825 61.0046C49.7515 61.8482 43.9698 64.566 38.6297 67.7175C33.218 70.9127 27.8462 74.8123 23.099 78.3975C21.4994 79.6099 19.9939 80.7585 18.5827 81.8435L18.5787 81.8475C17.6502 82.5637 16.7602 83.2428 15.9166 83.8848V56.7071C15.9161 53.4408 16.559 50.2064 17.8086 47.1886C19.0582 44.1708 20.89 41.4287 23.1994 39.1189C25.5088 36.8091 28.2506 34.9769 31.2682 33.7268C34.2858 32.4767 37.5201 31.8333 40.7864 31.8333H124.138L100.183 55.7839C96.443 59.5242 93.9926 64.3596 93.1881 69.5877L89.7063 92.2371Z" fill="#FFC116"/>
</svg>
