<svg width="191" height="191" viewBox="0 0 191 191" fill="none" xmlns="http://www.w3.org/2000/svg">
<path d="M169.93 32.5496C163.217 22.4783 148.972 21.0697 140.417 29.6249L107.219 62.8231C104.974 65.0667 103.504 67.9674 103.021 71.1037L99.5389 93.7492C99.4155 94.5519 99.4906 95.3726 99.7575 96.1396C100.024 96.9066 100.475 97.5966 101.07 98.1493C101.665 98.702 102.387 99.1005 103.171 99.3101C103.956 99.5198 104.78 99.5341 105.571 99.3518L128.531 94.0556C131.372 93.4003 133.959 91.927 135.972 89.8178L167.845 56.4246C170.852 53.2732 172.697 49.1922 173.076 44.8529C173.455 40.5136 172.346 36.1745 169.93 32.5496ZM89.7064 92.2371C89.3358 94.646 89.561 97.1091 90.3622 99.4109C91.1634 101.713 92.5162 103.783 94.3025 105.442C96.0887 107.1 98.2539 108.295 100.609 108.923C102.964 109.552 105.437 109.593 107.812 109.045L130.771 103.749C135.506 102.656 139.816 100.201 143.17 96.6858L175.083 63.2528V134.297C175.083 140.893 172.463 147.218 167.799 151.882C163.135 156.546 156.809 159.167 150.214 159.167H40.7865C34.1906 159.167 27.8649 156.546 23.2009 151.882C18.5369 147.218 15.9167 140.893 15.9167 134.297V96.081C16.2085 95.9536 16.4897 95.7971 16.7603 95.6114C19.0602 94.0198 21.8815 91.8551 24.8977 89.5392C26.2665 88.4887 27.6791 87.4064 29.0957 86.336C33.7712 82.8025 38.781 79.1775 43.6873 76.2806C48.6732 73.34 53.1458 71.3942 56.7867 70.8371C60.2008 70.3198 62.3138 71.056 63.8696 72.8745C64.7769 73.9289 65.1191 74.8481 65.2265 75.6798C65.3459 76.5751 65.2345 77.6893 64.753 79.1337C63.7463 82.1698 61.5816 85.4685 58.8917 89.5591L58.7484 89.77C56.2416 93.594 53.1816 98.2576 51.9122 103.037C51.2477 105.543 51.005 108.293 51.6695 111.126C52.338 113.991 53.858 116.598 56.1699 118.913C59.4965 122.24 63.2927 123.816 67.1047 124.086C70.7934 124.353 74.1796 123.382 76.8775 122.18C79.2103 121.12 81.41 119.788 83.4312 118.213C84.3223 117.519 85.1802 116.784 86.0018 116.009L86.0535 115.961L86.0734 115.941L86.0774 115.937L86.0813 115.933C86.9888 114.996 87.492 113.74 87.4825 112.436C87.4731 111.132 86.9518 109.884 86.0308 108.96C85.1099 108.037 83.863 107.512 82.5588 107.499C81.2546 107.485 79.9975 107.985 79.0581 108.89L78.9944 108.95L78.6761 109.244C78.2478 109.626 77.8058 109.992 77.351 110.342C75.959 111.43 74.4446 112.352 72.8387 113.088C71.06 113.88 69.3489 114.274 67.813 114.162C66.4044 114.067 64.8525 113.526 63.2051 111.878C62.0273 110.704 61.5498 109.698 61.3548 108.858C61.1479 107.991 61.1678 106.94 61.5259 105.595C62.3058 102.659 64.3511 99.3678 67.0649 95.2334L67.5424 94.5132C69.9299 90.8921 72.7631 86.5867 74.1956 82.2653C74.9914 79.8539 75.4609 77.1799 75.0909 74.3786C74.7129 71.5136 73.4992 68.8237 71.4221 66.4004C67.0092 61.2513 61.0365 60.1252 55.2826 61.0046C49.7515 61.8482 43.9698 64.566 38.6298 67.7175C33.2181 70.9127 27.8462 74.8123 23.0991 78.3975C21.4995 79.6099 19.994 80.7585 18.5827 81.8435L18.5788 81.8475C17.6503 82.5637 16.7603 83.2428 15.9167 83.8848V56.7071C15.9162 53.4408 16.5591 50.2064 17.8086 47.1886C19.0582 44.1708 20.89 41.4287 23.1995 39.1189C25.5089 36.8091 28.2507 34.9769 31.2683 33.7268C34.2859 32.4767 37.5202 31.8333 40.7865 31.8333H124.138L100.184 55.7839C96.4431 59.5242 93.9926 64.3596 93.1881 69.5877L89.7064 92.2371Z" fill="#6F94E6"/>
</svg>
