<svg width="243" height="235" viewBox="0 0 243 235" fill="none" xmlns="http://www.w3.org/2000/svg">
<path d="M159.97 151.773C169.287 146.765 168.08 127.465 157.282 108.636C152.65 100.529 146.954 93.9633 141.259 89.3734C134.448 94.2608 126.199 96.9115 117.718 96.9375C109.225 96.9193 100.961 94.2682 94.1397 89.3734C88.4444 93.9633 82.7643 100.536 78.1169 108.636C67.311 127.458 66.1188 146.765 75.4591 151.773C79.6205 154.065 84.0097 152.346 88.5355 148.131C87.6878 152.672 87.2634 157.278 87.2674 161.893C87.2674 183.469 95.9242 200.903 106.578 200.903C113.003 200.903 116.184 194.551 117.711 184.835C119.229 194.485 122.419 200.903 128.798 200.903C139.406 200.903 148.131 183.462 148.131 161.893C148.131 157.046 147.66 152.42 146.856 148.138C151.412 152.361 155.786 154.109 159.962 151.788L159.97 151.773ZM117.703 89.5938C122.012 89.656 126.29 88.8889 130.289 87.3371C134.288 85.7853 137.928 83.4798 140.997 80.5548C144.066 77.6298 146.502 74.1437 148.165 70.2994C149.828 66.4551 150.683 62.3294 150.682 58.1623C150.68 53.9953 149.822 49.8701 148.156 46.0269C146.491 42.1838 144.052 38.6993 140.98 35.7764C137.909 32.8535 134.268 30.5505 130.268 29.0014C126.267 27.4524 121.989 26.6881 117.68 26.7533C109.15 26.8823 101.013 30.2508 95.0289 36.1316C89.0444 42.0123 85.6917 49.9334 85.6947 58.1844C85.6977 66.4353 89.0561 74.3541 95.0449 80.2308C101.034 86.1075 109.172 89.4706 117.703 89.5938ZM182.964 109.525C189.903 109.329 196.49 106.525 201.327 101.709C206.163 96.8927 208.869 90.4434 208.869 83.7298C208.869 77.0162 206.163 70.5668 201.327 65.7508C196.49 60.9347 189.903 58.131 182.964 57.9349C175.888 57.9358 169.102 60.6552 164.099 65.4948C159.096 70.3343 156.286 76.8976 156.287 83.7408C156.288 90.584 159.1 97.1465 164.104 101.985C169.109 106.823 175.895 109.54 182.971 109.539L182.964 109.525ZM215.465 125.167C211.653 118.499 206.99 113.108 202.313 109.341C196.717 113.35 189.943 115.525 182.979 115.547C177.238 115.547 171.892 114.026 167.214 111.508C170.981 119.534 173.312 127.664 173.745 134.934C174.459 146.067 170.859 154.322 163.66 158.177C162.119 158.999 160.441 159.556 158.702 159.822C158.269 162.701 157.973 165.697 157.973 168.855C157.973 186.575 165.073 200.888 173.829 200.888C179.099 200.888 181.726 195.674 182.971 187.699C184.209 195.63 186.829 200.888 192.084 200.888C200.779 200.888 207.955 186.568 207.955 168.87C207.955 164.882 207.552 161.085 206.892 157.56C210.628 161.034 214.227 162.466 217.66 160.556C225.307 156.444 224.319 140.596 215.457 125.16L215.465 125.167ZM52.4424 109.525C57.7165 109.522 62.8712 108.007 67.2549 105.171C71.6387 102.335 75.0546 98.3062 77.0708 93.5932C79.087 88.8802 79.613 83.6949 78.5822 78.6928C77.5514 73.6908 75.0102 69.0966 71.2799 65.4911C67.5495 61.8856 62.7975 59.4307 57.6246 58.4367C52.4517 57.4427 47.0901 57.9543 42.2179 59.9068C37.3456 61.8594 33.1813 65.1651 30.2515 69.4061C27.3217 73.6472 25.758 78.633 25.758 83.7335C25.76 90.577 28.572 97.1397 33.5759 101.979C38.5798 106.818 45.3659 109.537 52.4424 109.539V109.525ZM71.6926 158.155C59.6033 151.656 58.4946 132.276 68.2298 111.493C63.4181 114.135 57.9834 115.534 52.45 115.554C45.1904 115.554 38.5383 113.204 33.086 109.341C28.4158 113.101 23.7608 118.491 19.9336 125.152C11.0717 140.603 10.0997 156.451 17.7542 160.549C21.1714 162.444 24.7784 161.026 28.4917 157.568C27.8161 161.297 27.4731 165.076 27.4666 168.862C27.4666 186.575 34.5667 200.881 43.3223 200.881C48.5924 200.881 51.2198 195.667 52.4652 187.699C53.7182 195.63 56.338 200.888 61.5777 200.888C70.2877 200.888 77.4486 186.568 77.4486 168.87C77.4486 165.69 77.1449 162.686 76.7121 159.807C74.9538 159.542 73.2574 158.981 71.7002 158.148L71.6926 158.155Z" fill="white"/>
</svg>
